<svg width="35" height="35" viewBox="0 0 35 35" fill="none" xmlns="http://www.w3.org/2000/svg">
<path d="M19.8969 7.31902L27.9257 16.6946L21.4901 27.2276L9.48386 24.3618L8.49925 12.0576L19.8969 7.31902Z" fill="white"/>
<path d="M14.3479 7.27962L25.9887 11.3847L25.6818 23.7244L13.8513 27.2456L6.84649 17.0822L14.3479 7.27962Z" fill="white"/>
<path d="M21.2964 17.045C21.2964 16.8015 21.3463 16.5859 21.446 16.3981C21.5487 16.2103 21.6866 16.0651 21.8597 15.9624C22.0357 15.8568 22.2308 15.804 22.445 15.804C22.6034 15.804 22.7589 15.8392 22.9115 15.9096C23.067 15.9771 23.1902 16.0681 23.2811 16.1825V15.0119H23.7872V18.2684H23.2811V17.9032C23.199 18.0205 23.0846 18.1173 22.9379 18.1936C22.7941 18.2699 22.6284 18.308 22.4406 18.308C22.2293 18.308 22.0357 18.2552 21.8597 18.1496C21.6866 18.0411 21.5487 17.8914 21.446 17.7007C21.3463 17.5071 21.2964 17.2885 21.2964 17.045ZM23.2811 17.0538C23.2811 16.8866 23.2459 16.7414 23.1755 16.6181C23.108 16.4949 23.0186 16.401 22.9071 16.3365C22.7956 16.272 22.6753 16.2397 22.5462 16.2397C22.4171 16.2397 22.2968 16.272 22.1853 16.3365C22.0739 16.3981 21.9829 16.4905 21.9125 16.6137C21.845 16.734 21.8113 16.8778 21.8113 17.045C21.8113 17.2123 21.845 17.3589 21.9125 17.4851C21.9829 17.6113 22.0739 17.7081 22.1853 17.7756C22.2998 17.8401 22.42 17.8724 22.5462 17.8724C22.6753 17.8724 22.7956 17.8401 22.9071 17.7756C23.0186 17.711 23.108 17.6171 23.1755 17.4939C23.2459 17.3677 23.2811 17.2211 23.2811 17.0538Z" fill="black"/>
<path d="M19.8289 15.804C20.0196 15.804 20.1897 15.8436 20.3394 15.9228C20.4919 16.0021 20.6107 16.1194 20.6958 16.2749C20.7809 16.4304 20.8235 16.6182 20.8235 16.8382V18.2684H20.3262V16.913C20.3262 16.6959 20.2719 16.5301 20.1633 16.4157C20.0548 16.2984 19.9066 16.2397 19.7189 16.2397C19.5311 16.2397 19.3815 16.2984 19.27 16.4157C19.1614 16.5301 19.1072 16.6959 19.1072 16.913V18.2684H18.6055V15.8436H19.1072V16.1209C19.1893 16.0211 19.2935 15.9434 19.4196 15.8876C19.5487 15.8319 19.6851 15.804 19.8289 15.804Z" fill="black"/>
<path d="M15.4558 17.045C15.4558 16.8015 15.5057 16.5859 15.6054 16.3981C15.7081 16.2104 15.846 16.0651 16.0191 15.9624C16.1951 15.8568 16.3888 15.804 16.6 15.804C16.7907 15.804 16.9565 15.8422 17.0973 15.9184C17.2411 15.9918 17.3555 16.0842 17.4406 16.1957V15.8436H17.9466V18.2684H17.4406V17.9076C17.3555 18.022 17.2396 18.1174 17.0929 18.1936C16.9462 18.2699 16.779 18.3081 16.5912 18.3081C16.3829 18.3081 16.1922 18.2552 16.0191 18.1496C15.846 18.0411 15.7081 17.8914 15.6054 17.7007C15.5057 17.5071 15.4558 17.2885 15.4558 17.045ZM17.4406 17.0538C17.4406 16.8866 17.4053 16.7414 17.3349 16.6182C17.2675 16.4949 17.178 16.4011 17.0665 16.3365C16.955 16.272 16.8347 16.2397 16.7056 16.2397C16.5765 16.2397 16.4563 16.272 16.3448 16.3365C16.2333 16.3981 16.1423 16.4905 16.0719 16.6138C16.0044 16.734 15.9707 16.8778 15.9707 17.045C15.9707 17.2123 16.0044 17.359 16.0719 17.4851C16.1423 17.6113 16.2333 17.7081 16.3448 17.7756C16.4592 17.8401 16.5795 17.8724 16.7056 17.8724C16.8347 17.8724 16.955 17.8401 17.0665 17.7756C17.178 17.711 17.2675 17.6171 17.3349 17.4939C17.4053 17.3678 17.4406 17.2211 17.4406 17.0538Z" fill="black"/>
<path d="M14.4358 16.1957C14.5091 16.0725 14.6059 15.9771 14.7262 15.9096C14.8494 15.8392 14.9947 15.804 15.1619 15.804V16.3233H15.0343C14.8377 16.3233 14.6881 16.3732 14.5854 16.4729C14.4856 16.5727 14.4358 16.7458 14.4358 16.9922V18.2684H13.9341V15.8436H14.4358V16.1957Z" fill="black"/>
<path d="M12.7992 16.6974C12.9635 16.7267 13.1028 16.8132 13.2173 16.957C13.3317 17.1008 13.3889 17.2636 13.3889 17.4455C13.3889 17.601 13.3478 17.7418 13.2657 17.868C13.1865 17.9912 13.0706 18.0895 12.918 18.1628C12.7655 18.2332 12.588 18.2684 12.3855 18.2684H11.1621V15.2099H12.3283C12.5366 15.2099 12.7156 15.2451 12.8652 15.3155C13.0148 15.3859 13.1278 15.4813 13.2041 15.6016C13.2803 15.7189 13.3185 15.8509 13.3185 15.9976C13.3185 16.1737 13.2715 16.3204 13.1777 16.4377C13.0838 16.5551 12.9576 16.6416 12.7992 16.6974ZM11.6638 16.4949H12.2843C12.4486 16.4949 12.5762 16.4582 12.6672 16.3849C12.7611 16.3086 12.808 16.2001 12.808 16.0592C12.808 15.9214 12.7611 15.8143 12.6672 15.738C12.5762 15.6588 12.4486 15.6192 12.2843 15.6192H11.6638V16.4949ZM12.3415 17.8592C12.5117 17.8592 12.6452 17.8181 12.742 17.7359C12.8388 17.6538 12.8872 17.5394 12.8872 17.3927C12.8872 17.2431 12.8359 17.1242 12.7332 17.0362C12.6305 16.9482 12.4941 16.9042 12.3239 16.9042H11.6638V17.8592H12.3415Z" fill="black"/>
</svg>
