<svg width="7" height="14" viewBox="0 0 7 14" fill="none" xmlns="http://www.w3.org/2000/svg">
<path d="M1.58019 13.8663C3.18598 13.8663 4.48773 12.5645 4.48773 10.9587V7.92489C4.48773 7.34387 4.95874 6.87286 5.53977 6.87286C6.08799 6.87286 6.54432 6.45185 6.58839 5.9054L6.60485 5.70133C6.65611 5.06572 6.15412 4.52162 5.51645 4.52162C4.9134 4.52162 4.42452 4.03266 4.42452 3.4296C4.42452 3.34291 4.42452 3.2629 4.42452 3.19528C4.42452 2.65268 4.55094 2.41153 5.11981 2.41153C5.21735 2.41153 5.34869 2.41153 5.49419 2.41153C6.16011 2.41153 6.69999 1.87169 6.69999 1.20576C6.69999 0.539839 6.16011 0 5.49419 0C5.14589 0 4.82098 0 4.67736 0C2.5283 0 1.51697 0.904329 1.51697 2.65269C1.51697 3.12914 1.51697 3.49112 1.51697 3.7634C1.51697 4.1823 1.17739 4.52162 0.758487 4.52162C0.339586 4.52162 0 4.8612 0 5.2801V6.11437C0 6.53327 0.339586 6.87286 0.758487 6.87286C1.17739 6.87286 1.51697 7.21245 1.51697 7.63135V13.8031C1.51697 13.838 1.54528 13.8663 1.58019 13.8663Z" fill="white"/>
</svg>
