<svg width="15" height="14" viewBox="0 0 15 14" fill="none" xmlns="http://www.w3.org/2000/svg">
<path d="M7.12346 1.25862C9.02791 1.25862 9.23196 1.25861 9.98014 1.32485C10.1073 1.32485 10.2249 1.32948 10.3335 1.33788C10.9839 1.38816 11.6213 1.66459 12.0886 2.11977C12.3607 2.38474 12.4967 2.58347 12.6328 2.91468C12.7008 3.17965 12.8368 3.51086 12.9048 4.17329C12.9728 4.90196 12.9728 5.10068 12.9728 6.95548C12.9728 8.81027 12.9728 9.00901 12.9048 9.73768C12.9048 9.85704 12.9004 9.96779 12.8924 10.0703C12.8419 10.7143 12.5514 11.3405 12.0886 11.7912C11.8166 12.0562 11.6125 12.1887 11.2724 12.3211C11.0004 12.3874 10.6603 12.5199 9.98014 12.5861C9.23196 12.6523 9.02791 12.6524 7.12346 12.6524C5.21901 12.6524 5.01497 12.6523 4.26679 12.5861C4.13966 12.5861 4.02203 12.5815 3.91346 12.5731C3.263 12.5228 2.62567 12.2464 2.1583 11.7912C1.88624 11.5262 1.75021 11.3275 1.61417 10.9963C1.54616 10.7313 1.41012 10.4001 1.3421 9.73768C1.27409 9.00901 1.27409 8.81027 1.27409 6.95548C1.27409 5.10068 1.27409 4.90196 1.3421 4.17329C1.3421 4.05393 1.34652 3.94317 1.35456 3.84063C1.40503 3.19669 1.69558 2.57043 2.1583 2.11977C2.43037 1.8548 2.63441 1.72232 2.97449 1.58983C3.24656 1.52359 3.58663 1.3911 4.26679 1.32485C5.01497 1.25861 5.28703 1.25862 7.12346 1.25862ZM7.12346 0C5.21901 0 4.94696 4.04214e-06 4.19878 0.0662467C3.45061 0.132489 2.90648 0.198732 2.49838 0.39746C2.02227 0.596188 1.61417 0.794914 1.27409 1.19237C0.865998 1.58983 0.661952 1.98728 0.457905 2.38474C0.253857 2.84844 0.185841 3.31214 0.117825 4.04081C0.0498088 4.76948 0.0498047 5.03445 0.0498047 6.88924C0.0498047 8.74404 0.0498088 9.00901 0.117825 9.73768C0.185841 10.4663 0.253857 10.9963 0.457905 11.3937C0.661952 11.8574 0.865998 12.2549 1.27409 12.5861C1.68219 12.9836 2.09029 13.1823 2.49838 13.381C2.97449 13.5798 3.45061 13.646 4.19878 13.7122C4.94696 13.7785 5.21901 13.7785 7.12346 13.7785C9.02791 13.7785 9.29997 13.7785 10.0481 13.7122C10.7963 13.646 11.3405 13.5798 11.7485 13.381C12.2247 13.1823 12.6328 12.9836 12.9728 12.5861C13.3809 12.1886 13.585 11.7912 13.789 11.3937C13.9931 10.93 14.0611 10.4663 14.1291 9.73768C14.1971 9.00901 14.1971 8.74404 14.1971 6.88924C14.1971 5.03445 14.1971 4.76948 14.1291 4.04081C14.0611 3.31214 13.9931 2.7822 13.789 2.38474C13.585 1.92104 13.3809 1.52358 12.9728 1.19237C12.5647 0.794914 12.1566 0.596188 11.7485 0.39746C11.2724 0.198732 10.7963 0.132489 10.0481 0.0662467C9.29997 4.04214e-06 9.09592 0 7.12346 0Z" fill="white"/>
<path d="M7.12354 3.37939C5.08306 3.37939 3.45068 4.96921 3.45068 6.95649C3.45068 8.94377 5.08306 10.5336 7.12354 10.5336C9.16402 10.5336 10.7964 8.94377 10.7964 6.95649C10.7964 4.96921 9.16402 3.37939 7.12354 3.37939ZM7.12354 9.20875C5.83124 9.20875 4.74298 8.14887 4.74298 6.89026C4.74298 5.63165 5.83124 4.57176 7.12354 4.57176C8.41584 4.57176 9.5041 5.63165 9.5041 6.89026C9.5041 8.21511 8.48386 9.20875 7.12354 9.20875Z" fill="white"/>
<path d="M11.8163 3.24592C11.8163 3.70962 11.4082 4.10708 10.9321 4.10708C10.4559 4.10708 10.0479 3.70962 10.0479 3.24592C10.0479 2.78222 10.4559 2.38477 10.9321 2.38477C11.4082 2.38477 11.8163 2.78222 11.8163 3.24592Z" fill="white"/>
</svg>
