<svg width="15" height="15" viewBox="0 0 15 15" fill="none" xmlns="http://www.w3.org/2000/svg">
<path d="M3.25852 12.5445V6.12706C3.25852 5.31098 2.59695 4.64941 1.78087 4.64941C0.964788 4.64941 0.303223 5.31098 0.303223 6.12706V12.5445C0.303223 13.3606 0.964788 14.0222 1.78087 14.0222C2.59695 14.0222 3.25852 13.3606 3.25852 12.5445Z" fill="white"/>
<path d="M1.74286 3.39485C2.70542 3.39485 3.48573 2.63489 3.48573 1.69743C3.48573 0.759966 2.70542 0 1.74286 0C0.780305 0 0 0.759966 0 1.69743C0 2.63489 0.780305 3.39485 1.74286 3.39485Z" fill="white"/>
<path d="M8.03235 9.15108C8.03235 7.82266 8.63857 7.01085 9.851 7.01085C10.9119 7.01085 11.4423 7.74886 11.4423 9.15108C11.4423 9.92145 11.4423 11.4612 11.4423 12.6189C11.4423 13.435 12.1039 14.0958 12.92 14.0958C13.736 14.0958 14.3976 13.4353 14.3976 12.6193C14.3976 11.3954 14.3976 9.61946 14.3976 8.11787C14.3976 5.60863 12.9578 4.354 10.9119 4.354C9.87234 4.354 9.1458 4.7541 8.68255 5.14772C8.48267 5.31756 8.03235 5.16392 8.03235 4.90163C8.03235 4.76222 7.91934 4.64922 7.77994 4.64922H6.59259C5.79743 4.64922 5.15283 5.29382 5.15283 6.08898V12.9221C5.15283 13.5295 5.64526 14.022 6.25271 14.022C7.07034 14.022 8.03235 13.0605 8.03235 12.2428C8.03235 11.1732 8.03235 9.88166 8.03235 9.15108Z" fill="white"/>
</svg>
