<svg width="125" height="18" viewBox="0 0 125 18" fill="none" xmlns="http://www.w3.org/2000/svg">
<path d="M8.92857 1.30198L10.8286 5.87007L10.9458 6.15205L11.2503 6.17646L16.1819 6.57183L12.4245 9.79043L12.1926 9.98911L12.2634 10.2862L13.4114 15.0986L9.1892 12.5197L8.92857 12.3605L8.66795 12.5197L4.44577 15.0986L5.59372 10.2862L5.66458 9.98911L5.43264 9.79043L1.67525 6.57183L6.60689 6.17646L6.91131 6.15205L7.0286 5.87007L8.92857 1.30198Z" fill="#F1C644" stroke="#F1C644"/>
<path d="M35.7142 1.30198L37.6142 5.87007L37.7315 6.15205L38.0359 6.17646L42.9675 6.57183L39.2102 9.79043L38.9782 9.98911L39.0491 10.2862L40.197 15.0986L35.9748 12.5197L35.7142 12.3605L35.4536 12.5197L31.2314 15.0986L32.3794 10.2862L32.4502 9.98911L32.2183 9.79043L28.4609 6.57183L33.3925 6.17646L33.697 6.15205L33.8142 5.87007L35.7142 1.30198Z" fill="#F1C644" stroke="#F1C644"/>
<path d="M62.4999 1.30198L64.3998 5.87007L64.5171 6.15205L64.8215 6.17646L69.7532 6.57183L65.9958 9.79043L65.7639 9.98911L65.8347 10.2862L66.9827 15.0986L62.7605 12.5197L62.4999 12.3605L62.2392 12.5197L58.0171 15.0986L59.165 10.2862L59.2359 9.98911L59.0039 9.79043L55.2465 6.57183L60.1782 6.17646L60.4826 6.15205L60.5999 5.87007L62.4999 1.30198Z" fill="#F1C644" stroke="#F1C644"/>
<path d="M89.286 1.30198L91.186 5.87007L91.3033 6.15205L91.6077 6.17646L96.5393 6.57183L92.7819 9.79043L92.55 9.98911L92.6209 10.2862L93.7688 15.0986L89.5466 12.5197L89.286 12.3605L89.0254 12.5197L84.8032 15.0986L85.9511 10.2862L86.022 9.98911L85.7901 9.79043L82.0327 6.57183L86.9643 6.17646L87.2687 6.15205L87.386 5.87007L89.286 1.30198Z" fill="url(#paint0_linear_5_333)" stroke="#F1C644"/>
<path d="M116.071 1.30198L117.971 5.87007L118.089 6.15205L118.393 6.17646L123.325 6.57183L119.567 9.79043L119.335 9.98911L119.406 10.2862L120.554 15.0986L116.332 12.5197L116.071 12.3605L115.811 12.5197L111.589 15.0986L112.737 10.2862L112.807 9.98911L112.575 9.79043L108.818 6.57183L113.75 6.17646L114.054 6.15205L114.171 5.87007L116.071 1.30198Z" stroke="#F1C644"/>
<defs>
<linearGradient id="paint0_linear_5_333" x1="80.3574" y1="8.92857" x2="98.2146" y2="8.92857" gradientUnits="userSpaceOnUse">
<stop stop-color="#F1C644"/>
<stop offset="0.5" stop-color="#F1C644"/>
<stop offset="0.5" stop-color="#F1C644" stop-opacity="0"/>
<stop offset="1" stop-color="#F1C644" stop-opacity="0"/>
</linearGradient>
</defs>
</svg>
