<svg width="24" height="24" viewBox="0 0 24 24" fill="none" xmlns="http://www.w3.org/2000/svg">
<g clip-path="url(#clip0_5_273)">
<path d="M22.5 12L16.5 18L15.4395 16.9395L20.379 12L15.4395 7.0605L16.5 6L22.5 12Z" fill="white"/>
<path d="M12 16.5C11.9015 16.5001 11.804 16.4808 11.713 16.443C11.622 16.4053 11.5393 16.35 11.4698 16.2802L7.71978 12.5302C7.6501 12.4606 7.59483 12.378 7.55712 12.287C7.51941 12.196 7.5 12.0985 7.5 12C7.5 11.9015 7.51941 11.804 7.55712 11.713C7.59483 11.622 7.6501 11.5394 7.71978 11.4697L11.4698 7.71975C11.5394 7.65007 11.622 7.5948 11.713 7.55709C11.804 7.51938 11.9015 7.49997 12 7.49997C12.0985 7.49997 12.196 7.51938 12.287 7.55709C12.378 7.5948 12.4607 7.65007 12.5303 7.71975L16.2803 11.4697C16.3499 11.5394 16.4052 11.622 16.4429 11.713C16.4806 11.804 16.5001 11.9015 16.5001 12C16.5001 12.0985 16.4806 12.196 16.4429 12.287C16.4052 12.378 16.3499 12.4606 16.2803 12.5302L12.5303 16.2802C12.4607 16.35 12.3781 16.4053 12.2871 16.443C12.1961 16.4808 12.0985 16.5001 12 16.5ZM9.3106 12L12 14.6894L14.6895 12L12 9.31057L9.3106 12Z" fill="white"/>
<path d="M1.5 12L7.5 6L8.5605 7.0605L3.621 12L8.5605 16.9395L7.5 18L1.5 12Z" fill="white"/>
</g>
<defs>
<clipPath id="clip0_5_273">
<rect width="24" height="24" fill="white"/>
</clipPath>
</defs>
</svg>
