<svg width="14" height="15" viewBox="0 0 14 15" fill="none" xmlns="http://www.w3.org/2000/svg">
<path d="M11.9603 2.04894C10.6442 0.728371 8.89397 0.000742245 7.02921 0C3.18705 0 0.0599857 3.13395 0.0584481 6.98609C0.0579545 8.21744 0.378935 9.4194 0.98893 10.4789L0 14.0993L3.6953 13.1278C4.71346 13.6843 5.85976 13.9777 7.02644 13.9782H7.02931C10.8711 13.9782 13.9984 10.8438 14 6.99165C14.0007 5.12486 13.2764 3.36951 11.9603 2.04894ZM7.02931 12.7982H7.02694C5.9873 12.7978 4.96762 12.5179 4.07807 11.9888L3.86648 11.8629L1.67364 12.4395L2.25896 10.2966L2.12116 10.0769C1.5412 9.15238 1.23489 8.08374 1.23535 6.98655C1.2366 3.78482 3.83571 1.17998 7.03155 1.17998C8.57905 1.18057 10.0338 1.7854 11.1276 2.88299C12.2215 3.98059 12.8236 5.43959 12.823 6.99121C12.8218 10.1932 10.2227 12.7982 7.02931 12.7982ZM10.2073 8.44911C10.0331 8.36173 9.17682 7.9394 9.01715 7.88114C8.85751 7.82287 8.74141 7.79375 8.62525 7.96854C8.50917 8.14329 8.17538 8.5365 8.07375 8.653C7.97215 8.76951 7.87055 8.78409 7.69638 8.6967C7.5222 8.60932 6.96099 8.42498 6.29572 7.83025C5.77796 7.36741 5.42837 6.79569 5.32678 6.6209C5.22518 6.44613 5.31597 6.35168 5.40316 6.26463C5.4815 6.18642 5.57733 6.06074 5.66442 5.9588C5.7515 5.85689 5.78054 5.78403 5.83859 5.66754C5.89666 5.55102 5.86762 5.44907 5.82407 5.36169C5.78054 5.27432 5.43219 4.41506 5.28704 4.06554C5.14568 3.72514 5.00206 3.7712 4.89514 3.76585C4.79366 3.76079 4.67743 3.75972 4.56133 3.75972C4.44523 3.75972 4.25652 3.8034 4.09688 3.97817C3.93723 4.15294 3.48728 4.57528 3.48728 5.43451C3.48728 6.29374 4.11138 7.12386 4.19847 7.24035C4.28557 7.35687 5.42664 9.12016 7.17386 9.87631C7.58944 10.0562 7.91385 10.1636 8.16682 10.244C8.58406 10.3769 8.96376 10.3581 9.26389 10.3132C9.59852 10.2631 10.2944 9.89091 10.4395 9.48313C10.5847 9.07534 10.5847 8.72583 10.5411 8.65302C10.4976 8.5802 10.3815 8.5365 10.2073 8.44911Z" fill="white"/>
</svg>
